{
  "asset": {
    "generator": "Khronos glTF Blender I/O v1.6.16",
    "version": "2.0"
  },
  "scene": 0,
  "scenes": [
    {
      "name": "Scene",
      "nodes": [
        8,
        15
      ]
    }
  ],
  "nodes": [
    {
      "mesh": 0,
      "name": "3D Widget",
      "rotation": [
        -0.7071068286895752,
        0,
        0,
        0.7071067094802856
      ],
      "scale": [
        100,
        100,
        100
      ]
    },
    {
      "mesh": 1,
      "name": "left_quest2_mesh"
    },
    {
      "name": "b_button_oculus",
      "rotation": [
        -0.7071068286895752,
        0,
        0,
        0.7071068286895752
      ],
      "translation": [
        1.3445786237716675,
        -1.5630815029144287,
        0.0953068658709526
      ]
    },
    {
      "name": "b_trigger_front",
      "rotation": [
        -0.0009445463656447828,
        -0.9949457049369812,
        0.10037975758314133,
        0.00245495792478323
      ],
      "scale": [
        0.9999998807907104,
        1.0000003576278687,
        1
      ],
      "translation": [
        -0.49906426668167114,
        2.7257227897644043,
        0.9470632076263428
      ]
    },
    {
      "name": "b_trigger_grip",
      "rotation": [
        -0.7071068286895752,
        -3.925231410404213e-17,
        -3.925231410404213e-17,
        0.7071068286895752
      ],
      "translation": [
        0.3603251576423645,
        -0.867583692073822,
        2.7524564266204834
      ]
    },
    {
      "name": "b_button_y",
      "rotation": [
        -0.7071068286895752,
        0,
        0,
        0.7071068286895752
      ],
      "translation": [
        -1.2684353590011597,
        0.05357266962528229,
        -0.1236538290977478
      ]
    },
    {
      "name": "b_button_x",
      "rotation": [
        -0.7071068286895752,
        0,
        0,
        0.7071068286895752
      ],
      "translation": [
        -0.5073308944702148,
        -1.3730638027191162,
        -0.07882533222436905
      ]
    },
    {
      "name": "b_thumbstick",
      "rotation": [
        0.6587796807289124,
        -0.047646623104810715,
        -0.7499017119407654,
        0.03723810985684395
      ],
      "scale": [
        0.9999998807907104,
        1,
        1.0000001192092896
      ],
      "translation": [
        0.9354756474494934,
        0.27985963225364685,
        0.47299620509147644
      ]
    },
    {
      "children": [
        0,
        1,
        2,
        3,
        4,
        5,
        6,
        7
      ],
      "name": "Axis Helper",
      "rotation": [
        0.7071068286895752,
        0,
        0,
        0.7071067094802856
      ],
      "scale": [
        0.009999999776482582,
        0.009999999776482582,
        0.009999999776482582
      ]
    },
    {
      "name": "b_button_oculus",
      "rotation": [
        -0.7071068286895752,
        0,
        0,
        0.7071068286895752
      ],
      "translation": [
        -1.344580054283142,
        -1.5630799531936646,
        0.09530690312385559
      ]
    },
    {
      "name": "b_trigger_front",
      "rotation": [
        -0.7071068286895752,
        -2.548333826621433e-16,
        3.857766824342184e-16,
        0.7071068286895752
      ],
      "translation": [
        0.49906399846076965,
        2.725719928741455,
        0.9470630288124084
      ]
    },
    {
      "name": "b_trigger_grip",
      "rotation": [
        -0.7071068286895752,
        4.906539263005266e-18,
        6.378500876470724e-17,
        0.7071068286895752
      ],
      "translation": [
        -0.4948650002479553,
        -1.3387099504470825,
        3.5737600326538086
      ]
    },
    {
      "name": "b_button_b",
      "rotation": [
        -0.7071068286895752,
        -1.5332935196891457e-19,
        -1.5332935196891457e-19,
        0.7071068286895752
      ],
      "translation": [
        1.2684400081634521,
        0.053572699427604675,
        -0.12365400046110153
      ]
    },
    {
      "name": "b_button_a",
      "rotation": [
        -0.7071068286895752,
        -1.5332935196891457e-19,
        -1.5332935196891457e-19,
        0.7071068286895752
      ],
      "translation": [
        0.5223349928855896,
        -1.3082900047302246,
        -0.06435900181531906
      ]
    },
    {
      "name": "b_thumbstick",
      "rotation": [
        -0.7071068286895752,
        1.9626157052021065e-17,
        1.3738310598159235e-16,
        0.7071068286895752
      ],
      "translation": [
        -0.9354760050773621,
        0.2798599898815155,
        0.4729959964752197
      ]
    },
    {
      "children": [
        9,
        10,
        11,
        12,
        13,
        14
      ],
      "name": "right_quest2_controller_world",
      "rotation": [
        0.7071068286895752,
        0,
        0,
        0.7071067094802856
      ],
      "scale": [
        0.009999999776482582,
        0.009999999776482582,
        0.009999999776482582
      ]
    }
  ],
  "materials": [
    {
      "doubleSided": true,
      "name": "Blue",
      "pbrMetallicRoughness": {
        "baseColorFactor": [
          0,
          0.057628460228443146,
          0.8000000715255737,
          1
        ],
        "metallicFactor": 0,
        "roughnessFactor": 0.5
      }
    },
    {
      "doubleSided": true,
      "name": "Green",
      "pbrMetallicRoughness": {
        "baseColorFactor": [
          0.03179672360420227,
          0.8000000715255737,
          0,
          1
        ],
        "metallicFactor": 0,
        "roughnessFactor": 0.5
      }
    },
    {
      "doubleSided": true,
      "name": "Red",
      "pbrMetallicRoughness": {
        "baseColorFactor": [
          0.8000000715255737,
          0.02852683886885643,
          0,
          1
        ],
        "metallicFactor": 0,
        "roughnessFactor": 0.5
      }
    },
    {
      "doubleSided": true,
      "name": "shell:quest2ControllerMAT",
      "pbrMetallicRoughness": {
        "baseColorTexture": {
          "index": 0
        },
        "metallicFactor": 0,
        "roughnessFactor": 0.5527864098548889
      }
    }
  ],
  "meshes": [
    {
      "name": "Z Axis",
      "primitives": [
        {
          "attributes": {
            "POSITION": 0,
            "NORMAL": 1,
            "TEXCOORD_0": 2
          },
          "indices": 3,
          "material": 0
        },
        {
          "attributes": {
            "POSITION": 4,
            "NORMAL": 5,
            "TEXCOORD_0": 6
          },
          "indices": 3,
          "material": 1
        },
        {
          "attributes": {
            "POSITION": 7,
            "NORMAL": 8,
            "TEXCOORD_0": 9
          },
          "indices": 10,
          "material": 2
        }
      ]
    },
    {
      "name": "Mesh",
      "primitives": [
        {
          "attributes": {
            "POSITION": 11,
            "NORMAL": 12,
            "TANGENT": 13,
            "TEXCOORD_0": 14,
            "COLOR_0": 15
          },
          "indices": 16,
          "material": 3
        }
      ]
    }
  ],
  "textures": [
    {
      "sampler": 0,
      "source": 0
    }
  ],
  "images": [
    {
      "name": "nextControllerBoth_color1k",
      "uri": "axis_widget_img0.png"
    }
  ],
  "accessors": [
    {
      "bufferView": 0,
      "componentType": 5126,
      "count": 130,
      "max": [
        0.01769360527396202,
        0.01769360713660717,
        0.000054774915042798966
      ],
      "min": [
        -0.01769360527396202,
        -0.01769360713660717,
        -0.25634661316871643
      ],
      "type": "VEC3"
    },
    {
      "bufferView": 1,
      "componentType": 5126,
      "count": 130,
      "type": "VEC3"
    },
    {
      "bufferView": 2,
      "componentType": 5126,
      "count": 130,
      "type": "VEC2"
    },
    {
      "bufferView": 3,
      "componentType": 5123,
      "count": 372,
      "type": "SCALAR"
    },
    {
      "bufferView": 4,
      "componentType": 5126,
      "count": 130,
      "max": [
        0.01769360713660717,
        0.25634661316871643,
        0.01769360713660717
      ],
      "min": [
        -0.01769360713660717,
        -0.00005477324521052651,
        -0.01769360713660717
      ],
      "type": "VEC3"
    },
    {
      "bufferView": 5,
      "componentType": 5126,
      "count": 130,
      "type": "VEC3"
    },
    {
      "bufferView": 6,
      "componentType": 5126,
      "count": 130,
      "type": "VEC2"
    },
    {
      "bufferView": 7,
      "componentType": 5126,
      "count": 98,
      "max": [
        0.25634661316871643,
        0.01769360527396202,
        0.01769360527396202
      ],
      "min": [
        -0.000054774915042798966,
        -0.01769360527396202,
        -0.01769360713660717
      ],
      "type": "VEC3"
    },
    {
      "bufferView": 8,
      "componentType": 5126,
      "count": 98,
      "type": "VEC3"
    },
    {
      "bufferView": 9,
      "componentType": 5126,
      "count": 98,
      "type": "VEC2"
    },
    {
      "bufferView": 10,
      "componentType": 5123,
      "count": 282,
      "type": "SCALAR"
    },
    {
      "bufferView": 11,
      "componentType": 5126,
      "count": 77791,
      "max": [
        3.7657458782196045,
        3.5378055572509766,
        7.237054347991943
      ],
      "min": [
        -5.421833515167236,
        -7.449219703674316,
        -6.194591522216797
      ],
      "type": "VEC3"
    },
    {
      "bufferView": 12,
      "componentType": 5126,
      "count": 77791,
      "type": "VEC3"
    },
    {
      "bufferView": 13,
      "componentType": 5126,
      "count": 77791,
      "type": "VEC4"
    },
    {
      "bufferView": 14,
      "componentType": 5126,
      "count": 77791,
      "type": "VEC2"
    },
    {
      "bufferView": 15,
      "componentType": 5123,
      "count": 77791,
      "normalized": true,
      "type": "VEC4"
    },
    {
      "bufferView": 16,
      "componentType": 5125,
      "count": 142392,
      "type": "SCALAR"
    }
  ],
  "bufferViews": [
    {
      "buffer": 0,
      "byteLength": 1560,
      "byteOffset": 0
    },
    {
      "buffer": 0,
      "byteLength": 1560,
      "byteOffset": 1560
    },
    {
      "buffer": 0,
      "byteLength": 1040,
      "byteOffset": 3120
    },
    {
      "buffer": 0,
      "byteLength": 744,
      "byteOffset": 4160
    },
    {
      "buffer": 0,
      "byteLength": 1560,
      "byteOffset": 4904
    },
    {
      "buffer": 0,
      "byteLength": 1560,
      "byteOffset": 6464
    },
    {
      "buffer": 0,
      "byteLength": 1040,
      "byteOffset": 8024
    },
    {
      "buffer": 0,
      "byteLength": 1176,
      "byteOffset": 9064
    },
    {
      "buffer": 0,
      "byteLength": 1176,
      "byteOffset": 10240
    },
    {
      "buffer": 0,
      "byteLength": 784,
      "byteOffset": 11416
    },
    {
      "buffer": 0,
      "byteLength": 564,
      "byteOffset": 12200
    },
    {
      "buffer": 0,
      "byteLength": 933492,
      "byteOffset": 12764
    },
    {
      "buffer": 0,
      "byteLength": 933492,
      "byteOffset": 946256
    },
    {
      "buffer": 0,
      "byteLength": 1244656,
      "byteOffset": 1879748
    },
    {
      "buffer": 0,
      "byteLength": 622328,
      "byteOffset": 3124404
    },
    {
      "buffer": 0,
      "byteLength": 622328,
      "byteOffset": 3746732
    },
    {
      "buffer": 0,
      "byteLength": 569568,
      "byteOffset": 4369060
    }
  ],
  "samplers": [
    {
      "magFilter": 9729,
      "minFilter": 9987
    }
  ],
  "buffers": [
    {
      "uri": "axis_widget_data.bin",
      "byteLength": 4938628
    }
  ]
}