{
  "asset": {
    "generator": "Khronos glTF Blender I/O v1.6.16",
    "version": "2.0"
  },
  "scene": 0,
  "scenes": [
    {
      "name": "Scene",
      "nodes": [0, 1, 2, 3, 4, 5]
    }
  ],
  "nodes": [
    {
      "mesh": 0,
      "name": "Blue Saber",
      "rotation": [0.707, 0, 0, 0.707]
    },
    {
      "mesh": 1,
      "name": "Red Saber",
      "rotation": [-0.707, 0, 0, 0.707],
      "scale": [0.07, 0.07, 0.07],
      "translation": [0, 0, -0.2]
    },
    {
      "mesh": 2,
      "name": "Blue Cube"
    },
    {
      "mesh": 3,
      "name": "Red Cube"
    },
    {
      "mesh": 4,
      "name": "Ramp",
      "scale": [0.7065974473953247, 1, 1],
      "translation": [0, 0, -32.69700622558594]
    },
    {
      "mesh": 5,
      "name": "Environment",
      "translation": [0, 12.998371124267578, 0]
    }
  ],
  "materials": [
    {
      "doubleSided": true,
      "name": "Rough",
      "pbrMetallicRoughness": {
        "baseColorFactor": [1, 1, 1, 0],
        "baseColorTexture": {
          "index": 0
        },
        "metallicFactor": 0
      }
    },
    {
      "doubleSided": true,
      "emissiveFactor": [1, 1, 1],
      "emissiveTexture": {
        "index": 1
      },
      "name": "Glow",
      "pbrMetallicRoughness": {
        "baseColorTexture": {
          "index": 2
        },
        "metallicFactor": 0
      }
    }
  ],
  "meshes": [
    {
      "name": "Cylinder",
      "primitives": [
        {
          "attributes": {
            "POSITION": 0,
            "NORMAL": 1,
            "TEXCOORD_0": 2
          },
          "indices": 3,
          "material": 0
        },
        {
          "attributes": {
            "POSITION": 4,
            "NORMAL": 5,
            "TEXCOORD_0": 6
          },
          "indices": 7,
          "material": 1
        }
      ]
    },
    {
      "name": "Cylinder.001",
      "primitives": [
        {
          "attributes": {
            "POSITION": 8,
            "NORMAL": 9,
            "TEXCOORD_0": 10
          },
          "indices": 3,
          "material": 0
        },
        {
          "attributes": {
            "POSITION": 11,
            "NORMAL": 12,
            "TEXCOORD_0": 13
          },
          "indices": 7,
          "material": 1
        }
      ]
    },
    {
      "name": "Cube.001",
      "primitives": [
        {
          "attributes": {
            "POSITION": 14,
            "NORMAL": 15,
            "TEXCOORD_0": 16
          },
          "indices": 17,
          "material": 0
        },
        {
          "attributes": {
            "POSITION": 18,
            "NORMAL": 19,
            "TEXCOORD_0": 20
          },
          "indices": 21,
          "material": 1
        }
      ]
    },
    {
      "name": "Cube.003",
      "primitives": [
        {
          "attributes": {
            "POSITION": 22,
            "NORMAL": 23,
            "TEXCOORD_0": 24
          },
          "indices": 25,
          "material": 0
        },
        {
          "attributes": {
            "POSITION": 26,
            "NORMAL": 27,
            "TEXCOORD_0": 28
          },
          "indices": 21,
          "material": 1
        }
      ]
    },
    {
      "name": "Cylinder.004",
      "primitives": [
        {
          "attributes": {
            "POSITION": 29,
            "NORMAL": 30,
            "TANGENT": 31,
            "TEXCOORD_0": 32
          },
          "indices": 33,
          "material": 0
        },
        {
          "attributes": {
            "POSITION": 34,
            "NORMAL": 35,
            "TANGENT": 36,
            "TEXCOORD_0": 37
          },
          "indices": 38,
          "material": 1
        }
      ]
    },
    {
      "name": "Cube_017",
      "primitives": [
        {
          "attributes": {
            "POSITION": 39,
            "NORMAL": 40,
            "TANGENT": 41,
            "TEXCOORD_0": 42
          },
          "indices": 43,
          "material": 0
        }
      ]
    }
  ],
  "textures": [
    {
      "sampler": 0,
      "source": 0
    },
    {
      "sampler": 1,
      "source": 0
    },
    {
      "sampler": 1,
      "source": 0
    }
  ],
  "images": [
    {
      "name": "endesga-36-8x",
      "uri": "beat_saber_img0.png"
    }
  ],
  "accessors": [
    {
      "bufferView": 0,
      "componentType": 5126,
      "count": 116,
      "max": [0.19553494453430176, 1.3519790172576904, 0.19553491473197937],
      "min": [-0.19553494453430176, 0, -0.19553497433662415],
      "type": "VEC3"
    },
    {
      "bufferView": 1,
      "componentType": 5126,
      "count": 116,
      "type": "VEC3"
    },
    {
      "bufferView": 2,
      "componentType": 5126,
      "count": 116,
      "type": "VEC2"
    },
    {
      "bufferView": 3,
      "componentType": 5123,
      "count": 276,
      "type": "SCALAR"
    },
    {
      "bufferView": 4,
      "componentType": 5126,
      "count": 112,
      "max": [0.19553494453430176, 7.791777610778809, 0.19553491473197937],
      "min": [-0.19553494453430176, 0.06978767365217209, -0.19553497433662415],
      "type": "VEC3"
    },
    {
      "bufferView": 5,
      "componentType": 5126,
      "count": 112,
      "type": "VEC3"
    },
    {
      "bufferView": 6,
      "componentType": 5126,
      "count": 112,
      "type": "VEC2"
    },
    {
      "bufferView": 7,
      "componentType": 5123,
      "count": 276,
      "type": "SCALAR"
    },
    {
      "bufferView": 8,
      "componentType": 5126,
      "count": 116,
      "max": [0.19553494453430176, 1.3519790172576904, 0.19553491473197937],
      "min": [-0.19553494453430176, 0, -0.19553497433662415],
      "type": "VEC3"
    },
    {
      "bufferView": 9,
      "componentType": 5126,
      "count": 116,
      "type": "VEC3"
    },
    {
      "bufferView": 10,
      "componentType": 5126,
      "count": 116,
      "type": "VEC2"
    },
    {
      "bufferView": 11,
      "componentType": 5126,
      "count": 112,
      "max": [0.19553494453430176, 7.791777610778809, 0.19553491473197937],
      "min": [-0.19553494453430176, 0.06978767365217209, -0.19553497433662415],
      "type": "VEC3"
    },
    {
      "bufferView": 12,
      "componentType": 5126,
      "count": 112,
      "type": "VEC3"
    },
    {
      "bufferView": 13,
      "componentType": 5126,
      "count": 112,
      "type": "VEC2"
    },
    {
      "bufferView": 14,
      "componentType": 5126,
      "count": 121,
      "max": [1, 2, 1],
      "min": [-1, 0, -1],
      "type": "VEC3"
    },
    {
      "bufferView": 15,
      "componentType": 5126,
      "count": 121,
      "type": "VEC3"
    },
    {
      "bufferView": 16,
      "componentType": 5126,
      "count": 121,
      "type": "VEC2"
    },
    {
      "bufferView": 17,
      "componentType": 5123,
      "count": 324,
      "type": "SCALAR"
    },
    {
      "bufferView": 18,
      "componentType": 5126,
      "count": 5,
      "max": [0.7146871089935303, 1.813883900642395, 1.0077928304672241],
      "min": [-0.7146870493888855, 1.3575950860977173, 1.0077928304672241],
      "type": "VEC3"
    },
    {
      "bufferView": 19,
      "componentType": 5126,
      "count": 5,
      "type": "VEC3"
    },
    {
      "bufferView": 20,
      "componentType": 5126,
      "count": 5,
      "type": "VEC2"
    },
    {
      "bufferView": 21,
      "componentType": 5123,
      "count": 9,
      "type": "SCALAR"
    },
    {
      "bufferView": 22,
      "componentType": 5126,
      "count": 120,
      "max": [1, 2, 1],
      "min": [-1, 0, -1],
      "type": "VEC3"
    },
    {
      "bufferView": 23,
      "componentType": 5126,
      "count": 120,
      "type": "VEC3"
    },
    {
      "bufferView": 24,
      "componentType": 5126,
      "count": 120,
      "type": "VEC2"
    },
    {
      "bufferView": 25,
      "componentType": 5123,
      "count": 324,
      "type": "SCALAR"
    },
    {
      "bufferView": 26,
      "componentType": 5126,
      "count": 5,
      "max": [0.7146871089935303, 1.813883900642395, 1.0077928304672241],
      "min": [-0.7146870493888855, 1.3575950860977173, 1.0077928304672241],
      "type": "VEC3"
    },
    {
      "bufferView": 27,
      "componentType": 5126,
      "count": 5,
      "type": "VEC3"
    },
    {
      "bufferView": 28,
      "componentType": 5126,
      "count": 5,
      "type": "VEC2"
    },
    {
      "bufferView": 29,
      "componentType": 5126,
      "count": 12,
      "max": [13.716608047485352, 0, 39.38066101074219],
      "min": [-13.716608047485352, 0, -39.38066101074219],
      "type": "VEC3"
    },
    {
      "bufferView": 30,
      "componentType": 5126,
      "count": 12,
      "type": "VEC3"
    },
    {
      "bufferView": 31,
      "componentType": 5126,
      "count": 12,
      "type": "VEC4"
    },
    {
      "bufferView": 32,
      "componentType": 5126,
      "count": 12,
      "type": "VEC2"
    },
    {
      "bufferView": 33,
      "componentType": 5123,
      "count": 18,
      "type": "SCALAR"
    },
    {
      "bufferView": 34,
      "componentType": 5126,
      "count": 8,
      "max": [12.197001457214355, 0, 39.38066101074219],
      "min": [-12.197001457214355, 0, -39.38066101074219],
      "type": "VEC3"
    },
    {
      "bufferView": 35,
      "componentType": 5126,
      "count": 8,
      "type": "VEC3"
    },
    {
      "bufferView": 36,
      "componentType": 5126,
      "count": 8,
      "type": "VEC4"
    },
    {
      "bufferView": 37,
      "componentType": 5126,
      "count": 8,
      "type": "VEC2"
    },
    {
      "bufferView": 38,
      "componentType": 5123,
      "count": 12,
      "type": "SCALAR"
    },
    {
      "bufferView": 39,
      "componentType": 5126,
      "count": 576,
      "max": [26.812393188476562, 26.812393188476562, 1.9760311841964722],
      "min": [-26.812393188476562, -26.812393188476562, -80.22685241699219],
      "type": "VEC3"
    },
    {
      "bufferView": 40,
      "componentType": 5126,
      "count": 576,
      "type": "VEC3"
    },
    {
      "bufferView": 41,
      "componentType": 5126,
      "count": 576,
      "type": "VEC4"
    },
    {
      "bufferView": 42,
      "componentType": 5126,
      "count": 576,
      "type": "VEC2"
    },
    {
      "bufferView": 43,
      "componentType": 5123,
      "count": 1152,
      "type": "SCALAR"
    }
  ],
  "bufferViews": [
    {
      "buffer": 0,
      "byteLength": 1392,
      "byteOffset": 0
    },
    {
      "buffer": 0,
      "byteLength": 1392,
      "byteOffset": 1392
    },
    {
      "buffer": 0,
      "byteLength": 928,
      "byteOffset": 2784
    },
    {
      "buffer": 0,
      "byteLength": 552,
      "byteOffset": 3712
    },
    {
      "buffer": 0,
      "byteLength": 1344,
      "byteOffset": 4264
    },
    {
      "buffer": 0,
      "byteLength": 1344,
      "byteOffset": 5608
    },
    {
      "buffer": 0,
      "byteLength": 896,
      "byteOffset": 6952
    },
    {
      "buffer": 0,
      "byteLength": 552,
      "byteOffset": 7848
    },
    {
      "buffer": 0,
      "byteLength": 1392,
      "byteOffset": 8400
    },
    {
      "buffer": 0,
      "byteLength": 1392,
      "byteOffset": 9792
    },
    {
      "buffer": 0,
      "byteLength": 928,
      "byteOffset": 11184
    },
    {
      "buffer": 0,
      "byteLength": 1344,
      "byteOffset": 12112
    },
    {
      "buffer": 0,
      "byteLength": 1344,
      "byteOffset": 13456
    },
    {
      "buffer": 0,
      "byteLength": 896,
      "byteOffset": 14800
    },
    {
      "buffer": 0,
      "byteLength": 1452,
      "byteOffset": 15696
    },
    {
      "buffer": 0,
      "byteLength": 1452,
      "byteOffset": 17148
    },
    {
      "buffer": 0,
      "byteLength": 968,
      "byteOffset": 18600
    },
    {
      "buffer": 0,
      "byteLength": 648,
      "byteOffset": 19568
    },
    {
      "buffer": 0,
      "byteLength": 60,
      "byteOffset": 20216
    },
    {
      "buffer": 0,
      "byteLength": 60,
      "byteOffset": 20276
    },
    {
      "buffer": 0,
      "byteLength": 40,
      "byteOffset": 20336
    },
    {
      "buffer": 0,
      "byteLength": 20,
      "byteOffset": 20376
    },
    {
      "buffer": 0,
      "byteLength": 1440,
      "byteOffset": 20396
    },
    {
      "buffer": 0,
      "byteLength": 1440,
      "byteOffset": 21836
    },
    {
      "buffer": 0,
      "byteLength": 960,
      "byteOffset": 23276
    },
    {
      "buffer": 0,
      "byteLength": 648,
      "byteOffset": 24236
    },
    {
      "buffer": 0,
      "byteLength": 60,
      "byteOffset": 24884
    },
    {
      "buffer": 0,
      "byteLength": 60,
      "byteOffset": 24944
    },
    {
      "buffer": 0,
      "byteLength": 40,
      "byteOffset": 25004
    },
    {
      "buffer": 0,
      "byteLength": 144,
      "byteOffset": 25044
    },
    {
      "buffer": 0,
      "byteLength": 144,
      "byteOffset": 25188
    },
    {
      "buffer": 0,
      "byteLength": 192,
      "byteOffset": 25332
    },
    {
      "buffer": 0,
      "byteLength": 96,
      "byteOffset": 25524
    },
    {
      "buffer": 0,
      "byteLength": 36,
      "byteOffset": 25620
    },
    {
      "buffer": 0,
      "byteLength": 96,
      "byteOffset": 25656
    },
    {
      "buffer": 0,
      "byteLength": 96,
      "byteOffset": 25752
    },
    {
      "buffer": 0,
      "byteLength": 128,
      "byteOffset": 25848
    },
    {
      "buffer": 0,
      "byteLength": 64,
      "byteOffset": 25976
    },
    {
      "buffer": 0,
      "byteLength": 24,
      "byteOffset": 26040
    },
    {
      "buffer": 0,
      "byteLength": 6912,
      "byteOffset": 26064
    },
    {
      "buffer": 0,
      "byteLength": 6912,
      "byteOffset": 32976
    },
    {
      "buffer": 0,
      "byteLength": 9216,
      "byteOffset": 39888
    },
    {
      "buffer": 0,
      "byteLength": 4608,
      "byteOffset": 49104
    },
    {
      "buffer": 0,
      "byteLength": 2304,
      "byteOffset": 53712
    }
  ],
  "samplers": [
    {
      "magFilter": 9728,
      "minFilter": 9984
    },
    {
      "magFilter": 9729,
      "minFilter": 9987
    }
  ],
  "buffers": [
    {
      "uri": "beat_saber_data.bin",
      "byteLength": 56016
    }
  ]
}
