{
  "asset": {
    "generator": "Khronos glTF Blender I/O v1.7.33",
    "version": "2.0"
  },
  "scene": 0,
  "scenes": [
    {
      "name": "Scene",
      "nodes": [
        0,
        1,
        2,
        3,
        4,
        5,
        6,
        7
      ]
    }
  ],
  "nodes": [
    {
      "mesh": 0,
      "name": "Blue Saber"
    },
    {
      "mesh": 1,
      "name": "Red Pointer"
    },
    {
      "mesh": 2,
      "name": "Blue Cube"
    },
    {
      "mesh": 3,
      "name": "Red Cube"
    },
    {
      "mesh": 4,
      "name": "Environment",
      "scale": [
        2,
        2,
        2
      ],
      "translation": [
        0,
        0,
        -2
      ]
    },
    {
      "mesh": 5,
      "name": "Ramp",
      "translation": [
        0,
        1,
        -2
      ]
    },
    {
      "mesh": 6,
      "name": "Blue Pointer"
    },
    {
      "mesh": 7,
      "name": "Red Saber"
    }
  ],
  "materials": [
    {
      "doubleSided": true,
      "name": "Rough",
      "pbrMetallicRoughness": {
        "baseColorTexture": {
          "index": 0
        },
        "metallicFactor": 0
      }
    },
    {
      "doubleSided": true,
      "emissiveFactor": [
        1,
        1,
        1
      ],
      "emissiveTexture": {
        "index": 1
      },
      "name": "Glow",
      "pbrMetallicRoughness": {
        "baseColorTexture": {
          "index": 2
        },
        "metallicFactor": 0
      }
    },
    {
      "doubleSided": true,
      "emissiveFactor": [
        1,
        1,
        1
      ],
      "emissiveTexture": {
        "index": 3
      },
      "name": "Glow.001",
      "pbrMetallicRoughness": {
        "baseColorTexture": {
          "index": 4
        },
        "metallicFactor": 0
      }
    },
    {
      "doubleSided": true,
      "name": "Ramp.001",
      "pbrMetallicRoughness": {
        "baseColorFactor": [
          0.05659273639321327,
          0.05825238302350044,
          0.08713532239198685,
          1
        ],
        "metallicFactor": 0,
        "roughnessFactor": 0.5
      }
    },
    {
      "doubleSided": true,
      "name": "Rough.002",
      "pbrMetallicRoughness": {
        "baseColorTexture": {
          "index": 5
        },
        "metallicFactor": 0
      }
    },
    {
      "doubleSided": true,
      "emissiveFactor": [
        1,
        1,
        1
      ],
      "emissiveTexture": {
        "index": 6
      },
      "name": "Glow.002",
      "pbrMetallicRoughness": {
        "baseColorTexture": {
          "index": 7
        },
        "metallicFactor": 0
      }
    },
    {
      "doubleSided": true,
      "name": "Rough.004",
      "pbrMetallicRoughness": {
        "baseColorTexture": {
          "index": 8
        },
        "metallicFactor": 0
      }
    },
    {
      "doubleSided": true,
      "emissiveFactor": [
        1,
        1,
        1
      ],
      "emissiveTexture": {
        "index": 9
      },
      "name": "Glow.004",
      "pbrMetallicRoughness": {
        "baseColorTexture": {
          "index": 10
        },
        "metallicFactor": 0
      }
    }
  ],
  "meshes": [
    {
      "name": "Cylinder",
      "primitives": [
        {
          "attributes": {
            "POSITION": 0,
            "NORMAL": 1,
            "TEXCOORD_0": 2
          },
          "indices": 3,
          "material": 0
        },
        {
          "attributes": {
            "POSITION": 4,
            "NORMAL": 5,
            "TEXCOORD_0": 6
          },
          "indices": 7,
          "material": 1
        }
      ]
    },
    {
      "name": "Cylinder.001",
      "primitives": [
        {
          "attributes": {
            "POSITION": 8,
            "NORMAL": 9,
            "TEXCOORD_0": 10
          },
          "indices": 11,
          "material": 0
        },
        {
          "attributes": {
            "POSITION": 12,
            "NORMAL": 13,
            "TEXCOORD_0": 14
          },
          "indices": 15,
          "material": 1
        }
      ]
    },
    {
      "name": "Cube.001",
      "primitives": [
        {
          "attributes": {
            "POSITION": 16,
            "NORMAL": 17,
            "TEXCOORD_0": 18
          },
          "indices": 19,
          "material": 0
        },
        {
          "attributes": {
            "POSITION": 20,
            "NORMAL": 21,
            "TEXCOORD_0": 22
          },
          "indices": 23,
          "material": 1
        }
      ]
    },
    {
      "name": "Cube.003",
      "primitives": [
        {
          "attributes": {
            "POSITION": 24,
            "NORMAL": 25,
            "TEXCOORD_0": 26
          },
          "indices": 27,
          "material": 0
        },
        {
          "attributes": {
            "POSITION": 28,
            "NORMAL": 29,
            "TEXCOORD_0": 30
          },
          "indices": 23,
          "material": 1
        }
      ]
    },
    {
      "name": "Cube_017",
      "primitives": [
        {
          "attributes": {
            "POSITION": 31,
            "NORMAL": 32,
            "TANGENT": 33,
            "TEXCOORD_0": 34
          },
          "indices": 35,
          "material": 0
        }
      ]
    },
    {
      "name": "Cylinder.002",
      "primitives": [
        {
          "attributes": {
            "POSITION": 36,
            "NORMAL": 37,
            "TEXCOORD_0": 38
          },
          "indices": 39,
          "material": 2
        },
        {
          "attributes": {
            "POSITION": 40,
            "NORMAL": 41,
            "TEXCOORD_0": 42
          },
          "indices": 43,
          "material": 3
        }
      ]
    },
    {
      "name": "Cylinder.003",
      "primitives": [
        {
          "attributes": {
            "POSITION": 44,
            "NORMAL": 45,
            "TEXCOORD_0": 46
          },
          "indices": 47,
          "material": 4
        },
        {
          "attributes": {
            "POSITION": 48,
            "NORMAL": 49,
            "TEXCOORD_0": 50
          },
          "indices": 51,
          "material": 5
        }
      ]
    },
    {
      "name": "Cylinder.005",
      "primitives": [
        {
          "attributes": {
            "POSITION": 52,
            "NORMAL": 53,
            "TEXCOORD_0": 54
          },
          "indices": 11,
          "material": 6
        },
        {
          "attributes": {
            "POSITION": 55,
            "NORMAL": 56,
            "TEXCOORD_0": 57
          },
          "indices": 58,
          "material": 7
        }
      ]
    }
  ],
  "textures": [
    {
      "sampler": 0,
      "source": 0
    },
    {
      "sampler": 1,
      "source": 0
    },
    {
      "sampler": 1,
      "source": 0
    },
    {
      "sampler": 1,
      "source": 0
    },
    {
      "sampler": 1,
      "source": 0
    },
    {
      "sampler": 0,
      "source": 0
    },
    {
      "sampler": 1,
      "source": 0
    },
    {
      "sampler": 1,
      "source": 0
    },
    {
      "sampler": 0,
      "source": 0
    },
    {
      "sampler": 1,
      "source": 0
    },
    {
      "sampler": 1,
      "source": 0
    }
  ],
  "images": [
    {
      "name": "endesga-36-8x",
      "uri": "beat_saber_img0.png"
    }
  ],
  "accessors": [
    {
      "bufferView": 0,
      "componentType": 5126,
      "count": 112,
      "max": [
        0.019553495571017265,
        0.13519790768623352,
        0.019553491845726967
      ],
      "min": [
        -0.019553495571017265,
        0,
        -0.019553497433662415
      ],
      "type": "VEC3"
    },
    {
      "bufferView": 1,
      "componentType": 5126,
      "count": 112,
      "type": "VEC3"
    },
    {
      "bufferView": 2,
      "componentType": 5126,
      "count": 112,
      "type": "VEC2"
    },
    {
      "bufferView": 3,
      "componentType": 5123,
      "count": 276,
      "type": "SCALAR"
    },
    {
      "bufferView": 4,
      "componentType": 5126,
      "count": 115,
      "max": [
        0.019553495571017265,
        0.7791777849197388,
        0.019553491845726967
      ],
      "min": [
        -0.019553495571017265,
        0.006978767458349466,
        -0.019553497433662415
      ],
      "type": "VEC3"
    },
    {
      "bufferView": 5,
      "componentType": 5126,
      "count": 115,
      "type": "VEC3"
    },
    {
      "bufferView": 6,
      "componentType": 5126,
      "count": 115,
      "type": "VEC2"
    },
    {
      "bufferView": 7,
      "componentType": 5123,
      "count": 276,
      "type": "SCALAR"
    },
    {
      "bufferView": 8,
      "componentType": 5126,
      "count": 114,
      "max": [
        0.019553499296307564,
        0.1352631151676178,
        0.01956082507967949
      ],
      "min": [
        -0.019553499296307564,
        0.00005824863910675049,
        -0.019570130854845047
      ],
      "type": "VEC3"
    },
    {
      "bufferView": 9,
      "componentType": 5126,
      "count": 114,
      "type": "VEC3"
    },
    {
      "bufferView": 10,
      "componentType": 5126,
      "count": 114,
      "type": "VEC2"
    },
    {
      "bufferView": 11,
      "componentType": 5123,
      "count": 276,
      "type": "SCALAR"
    },
    {
      "bufferView": 12,
      "componentType": 5126,
      "count": 57,
      "max": [
        0.019553499296307564,
        0.12828433513641357,
        0.01955959014594555
      ],
      "min": [
        -0.019553499296307564,
        0.00703701376914978,
        -0.01956889033317566
      ],
      "type": "VEC3"
    },
    {
      "bufferView": 13,
      "componentType": 5126,
      "count": 57,
      "type": "VEC3"
    },
    {
      "bufferView": 14,
      "componentType": 5126,
      "count": 57,
      "type": "VEC2"
    },
    {
      "bufferView": 15,
      "componentType": 5123,
      "count": 144,
      "type": "SCALAR"
    },
    {
      "bufferView": 16,
      "componentType": 5126,
      "count": 132,
      "max": [
        0.20000000298023224,
        0.4000000059604645,
        0.20000000298023224
      ],
      "min": [
        -0.20000000298023224,
        0,
        -0.20000000298023224
      ],
      "type": "VEC3"
    },
    {
      "bufferView": 17,
      "componentType": 5126,
      "count": 132,
      "type": "VEC3"
    },
    {
      "bufferView": 18,
      "componentType": 5126,
      "count": 132,
      "type": "VEC2"
    },
    {
      "bufferView": 19,
      "componentType": 5123,
      "count": 324,
      "type": "SCALAR"
    },
    {
      "bufferView": 20,
      "componentType": 5126,
      "count": 5,
      "max": [
        0.14293742179870605,
        0.3627767860889435,
        0.20155857503414154
      ],
      "min": [
        -0.14293740689754486,
        0.2715190351009369,
        0.20155857503414154
      ],
      "type": "VEC3"
    },
    {
      "bufferView": 21,
      "componentType": 5126,
      "count": 5,
      "type": "VEC3"
    },
    {
      "bufferView": 22,
      "componentType": 5126,
      "count": 5,
      "type": "VEC2"
    },
    {
      "bufferView": 23,
      "componentType": 5123,
      "count": 9,
      "type": "SCALAR"
    },
    {
      "bufferView": 24,
      "componentType": 5126,
      "count": 128,
      "max": [
        0.20000000298023224,
        0.4000000059604645,
        0.20000000298023224
      ],
      "min": [
        -0.20000000298023224,
        0,
        -0.20000000298023224
      ],
      "type": "VEC3"
    },
    {
      "bufferView": 25,
      "componentType": 5126,
      "count": 128,
      "type": "VEC3"
    },
    {
      "bufferView": 26,
      "componentType": 5126,
      "count": 128,
      "type": "VEC2"
    },
    {
      "bufferView": 27,
      "componentType": 5123,
      "count": 324,
      "type": "SCALAR"
    },
    {
      "bufferView": 28,
      "componentType": 5126,
      "count": 5,
      "max": [
        0.14293742179870605,
        0.3627767860889435,
        0.20155857503414154
      ],
      "min": [
        -0.14293740689754486,
        0.2715190351009369,
        0.20155857503414154
      ],
      "type": "VEC3"
    },
    {
      "bufferView": 29,
      "componentType": 5126,
      "count": 5,
      "type": "VEC3"
    },
    {
      "bufferView": 30,
      "componentType": 5126,
      "count": 5,
      "type": "VEC2"
    },
    {
      "bufferView": 31,
      "componentType": 5126,
      "count": 576,
      "max": [
        5.362478733062744,
        5.362478733062744,
        0.3952062427997589
      ],
      "min": [
        -5.362478733062744,
        -5.362478733062744,
        -16.04537010192871
      ],
      "type": "VEC3"
    },
    {
      "bufferView": 32,
      "componentType": 5126,
      "count": 576,
      "type": "VEC3"
    },
    {
      "bufferView": 33,
      "componentType": 5126,
      "count": 576,
      "type": "VEC4"
    },
    {
      "bufferView": 34,
      "componentType": 5126,
      "count": 576,
      "type": "VEC2"
    },
    {
      "bufferView": 35,
      "componentType": 5123,
      "count": 1152,
      "type": "SCALAR"
    },
    {
      "bufferView": 36,
      "componentType": 5126,
      "count": 26,
      "max": [
        0.8639692664146423,
        0.00028330087661743164,
        -0.0008425712585449219
      ],
      "min": [
        -0.8639692664146423,
        -0.10231174528598785,
        -20.011171340942383
      ],
      "type": "VEC3"
    },
    {
      "bufferView": 37,
      "componentType": 5126,
      "count": 26,
      "type": "VEC3"
    },
    {
      "bufferView": 38,
      "componentType": 5126,
      "count": 26,
      "type": "VEC2"
    },
    {
      "bufferView": 39,
      "componentType": 5123,
      "count": 42,
      "type": "SCALAR"
    },
    {
      "bufferView": 40,
      "componentType": 5126,
      "count": 144,
      "max": [
        0.9987326860427856,
        0.00028330087661743164,
        -0.0008425712585449219
      ],
      "min": [
        -0.9988172054290771,
        -0.9993448853492737,
        -20.011171340942383
      ],
      "type": "VEC3"
    },
    {
      "bufferView": 41,
      "componentType": 5126,
      "count": 144,
      "type": "VEC3"
    },
    {
      "bufferView": 42,
      "componentType": 5126,
      "count": 144,
      "type": "VEC2"
    },
    {
      "bufferView": 43,
      "componentType": 5123,
      "count": 234,
      "type": "SCALAR"
    },
    {
      "bufferView": 44,
      "componentType": 5126,
      "count": 160,
      "max": [
        0.019553495571017265,
        1.017333984375,
        0.019553491845726967
      ],
      "min": [
        -0.019553495571017265,
        0,
        -0.019553497433662415
      ],
      "type": "VEC3"
    },
    {
      "bufferView": 45,
      "componentType": 5126,
      "count": 160,
      "type": "VEC3"
    },
    {
      "bufferView": 46,
      "componentType": 5126,
      "count": 160,
      "type": "VEC2"
    },
    {
      "bufferView": 47,
      "componentType": 5123,
      "count": 378,
      "type": "SCALAR"
    },
    {
      "bufferView": 48,
      "componentType": 5126,
      "count": 69,
      "max": [
        0.019553495571017265,
        0.13370847702026367,
        0.019553491845726967
      ],
      "min": [
        -0.019553495571017265,
        0.006978767458349466,
        -0.019553497433662415
      ],
      "type": "VEC3"
    },
    {
      "bufferView": 49,
      "componentType": 5126,
      "count": 69,
      "type": "VEC3"
    },
    {
      "bufferView": 50,
      "componentType": 5126,
      "count": 69,
      "type": "VEC2"
    },
    {
      "bufferView": 51,
      "componentType": 5123,
      "count": 174,
      "type": "SCALAR"
    },
    {
      "bufferView": 52,
      "componentType": 5126,
      "count": 114,
      "max": [
        0.019553499296307564,
        0.1352631151676178,
        0.01956082507967949
      ],
      "min": [
        -0.019553499296307564,
        0.00005824863910675049,
        -0.019570130854845047
      ],
      "type": "VEC3"
    },
    {
      "bufferView": 53,
      "componentType": 5126,
      "count": 114,
      "type": "VEC3"
    },
    {
      "bufferView": 54,
      "componentType": 5126,
      "count": 114,
      "type": "VEC2"
    },
    {
      "bufferView": 55,
      "componentType": 5126,
      "count": 117,
      "max": [
        0.019553499296307564,
        0.7792410850524902,
        0.01955959014594555
      ],
      "min": [
        -0.019553499296307564,
        0.00703701376914978,
        -0.01956889033317566
      ],
      "type": "VEC3"
    },
    {
      "bufferView": 56,
      "componentType": 5126,
      "count": 117,
      "type": "VEC3"
    },
    {
      "bufferView": 57,
      "componentType": 5126,
      "count": 117,
      "type": "VEC2"
    },
    {
      "bufferView": 58,
      "componentType": 5123,
      "count": 276,
      "type": "SCALAR"
    }
  ],
  "bufferViews": [
    {
      "buffer": 0,
      "byteLength": 1344,
      "byteOffset": 0
    },
    {
      "buffer": 0,
      "byteLength": 1344,
      "byteOffset": 1344
    },
    {
      "buffer": 0,
      "byteLength": 896,
      "byteOffset": 2688
    },
    {
      "buffer": 0,
      "byteLength": 552,
      "byteOffset": 3584
    },
    {
      "buffer": 0,
      "byteLength": 1380,
      "byteOffset": 4136
    },
    {
      "buffer": 0,
      "byteLength": 1380,
      "byteOffset": 5516
    },
    {
      "buffer": 0,
      "byteLength": 920,
      "byteOffset": 6896
    },
    {
      "buffer": 0,
      "byteLength": 552,
      "byteOffset": 7816
    },
    {
      "buffer": 0,
      "byteLength": 1368,
      "byteOffset": 8368
    },
    {
      "buffer": 0,
      "byteLength": 1368,
      "byteOffset": 9736
    },
    {
      "buffer": 0,
      "byteLength": 912,
      "byteOffset": 11104
    },
    {
      "buffer": 0,
      "byteLength": 552,
      "byteOffset": 12016
    },
    {
      "buffer": 0,
      "byteLength": 684,
      "byteOffset": 12568
    },
    {
      "buffer": 0,
      "byteLength": 684,
      "byteOffset": 13252
    },
    {
      "buffer": 0,
      "byteLength": 456,
      "byteOffset": 13936
    },
    {
      "buffer": 0,
      "byteLength": 288,
      "byteOffset": 14392
    },
    {
      "buffer": 0,
      "byteLength": 1584,
      "byteOffset": 14680
    },
    {
      "buffer": 0,
      "byteLength": 1584,
      "byteOffset": 16264
    },
    {
      "buffer": 0,
      "byteLength": 1056,
      "byteOffset": 17848
    },
    {
      "buffer": 0,
      "byteLength": 648,
      "byteOffset": 18904
    },
    {
      "buffer": 0,
      "byteLength": 60,
      "byteOffset": 19552
    },
    {
      "buffer": 0,
      "byteLength": 60,
      "byteOffset": 19612
    },
    {
      "buffer": 0,
      "byteLength": 40,
      "byteOffset": 19672
    },
    {
      "buffer": 0,
      "byteLength": 20,
      "byteOffset": 19712
    },
    {
      "buffer": 0,
      "byteLength": 1536,
      "byteOffset": 19732
    },
    {
      "buffer": 0,
      "byteLength": 1536,
      "byteOffset": 21268
    },
    {
      "buffer": 0,
      "byteLength": 1024,
      "byteOffset": 22804
    },
    {
      "buffer": 0,
      "byteLength": 648,
      "byteOffset": 23828
    },
    {
      "buffer": 0,
      "byteLength": 60,
      "byteOffset": 24476
    },
    {
      "buffer": 0,
      "byteLength": 60,
      "byteOffset": 24536
    },
    {
      "buffer": 0,
      "byteLength": 40,
      "byteOffset": 24596
    },
    {
      "buffer": 0,
      "byteLength": 6912,
      "byteOffset": 24636
    },
    {
      "buffer": 0,
      "byteLength": 6912,
      "byteOffset": 31548
    },
    {
      "buffer": 0,
      "byteLength": 9216,
      "byteOffset": 38460
    },
    {
      "buffer": 0,
      "byteLength": 4608,
      "byteOffset": 47676
    },
    {
      "buffer": 0,
      "byteLength": 2304,
      "byteOffset": 52284
    },
    {
      "buffer": 0,
      "byteLength": 312,
      "byteOffset": 54588
    },
    {
      "buffer": 0,
      "byteLength": 312,
      "byteOffset": 54900
    },
    {
      "buffer": 0,
      "byteLength": 208,
      "byteOffset": 55212
    },
    {
      "buffer": 0,
      "byteLength": 84,
      "byteOffset": 55420
    },
    {
      "buffer": 0,
      "byteLength": 1728,
      "byteOffset": 55504
    },
    {
      "buffer": 0,
      "byteLength": 1728,
      "byteOffset": 57232
    },
    {
      "buffer": 0,
      "byteLength": 1152,
      "byteOffset": 58960
    },
    {
      "buffer": 0,
      "byteLength": 468,
      "byteOffset": 60112
    },
    {
      "buffer": 0,
      "byteLength": 1920,
      "byteOffset": 60580
    },
    {
      "buffer": 0,
      "byteLength": 1920,
      "byteOffset": 62500
    },
    {
      "buffer": 0,
      "byteLength": 1280,
      "byteOffset": 64420
    },
    {
      "buffer": 0,
      "byteLength": 756,
      "byteOffset": 65700
    },
    {
      "buffer": 0,
      "byteLength": 828,
      "byteOffset": 66456
    },
    {
      "buffer": 0,
      "byteLength": 828,
      "byteOffset": 67284
    },
    {
      "buffer": 0,
      "byteLength": 552,
      "byteOffset": 68112
    },
    {
      "buffer": 0,
      "byteLength": 348,
      "byteOffset": 68664
    },
    {
      "buffer": 0,
      "byteLength": 1368,
      "byteOffset": 69012
    },
    {
      "buffer": 0,
      "byteLength": 1368,
      "byteOffset": 70380
    },
    {
      "buffer": 0,
      "byteLength": 912,
      "byteOffset": 71748
    },
    {
      "buffer": 0,
      "byteLength": 1404,
      "byteOffset": 72660
    },
    {
      "buffer": 0,
      "byteLength": 1404,
      "byteOffset": 74064
    },
    {
      "buffer": 0,
      "byteLength": 936,
      "byteOffset": 75468
    },
    {
      "buffer": 0,
      "byteLength": 552,
      "byteOffset": 76404
    }
  ],
  "samplers": [
    {
      "magFilter": 9728,
      "minFilter": 9984
    },
    {
      "magFilter": 9729,
      "minFilter": 9987
    }
  ],
  "buffers": [
    {
      "uri": "beat_saber_data.bin",
      "byteLength": 76956
    }
  ]
}