{
  "scenes": [
    {
      "nodes": [0]
    }
  ],

  "nodes": [
    {
      "name": "Test",
      "skin": 0,
      "mesh": 0,
      "children": [1]
    },
    {
      "children": [2],
      "translation": [0.0, 1.0, 0.0]
    },
    {
      "rotation": [0.0, 0.0, 0.0, 1.0]
    }
  ],

  "meshes": [
    {
      "primitives": [
        {
          "attributes": {
            "POSITION": 1,
            "JOINTS_0": 2,
            "WEIGHTS_0": 3
          },
          "indices": 0,
          "material": 0
        }
      ]
    }
  ],
  "textures": [
    {
      "sampler": 0,
      "source": 0
    },
    {
      "sampler": 0,
      "source": 1
    }
  ],
  "samplers": [
    {
      "magFilter": 9729,
      "minFilter": 9987
    }
  ],
  "materials": [
    {
      "doubleSided": true,
      "name": "Material #46",
      "normalTexture": {
        "index": 0
      },
      "pbrMetallicRoughness": {
        "baseColorTexture": {
          "index": 1
        },
        "metallicFactor": 0,
        "roughnessFactor": 0.5
      }
    }
  ],
  "images": [
    {
      "mimeType": "image/png",
      "name": "normal_map",
      "uri": "normal_map.png"
    },
    {
      "mimeType": "image/png",
      "name": "blue_hand",
      "uri": "blue_hand.png"
    }
  ],

  "skins": [
    {
      "inverseBindMatrices": 4,
      "joints": [1, 2]
    }
  ],

  "animations": [
    {
      "channels": [
        {
          "sampler": 0,
          "target": {
            "node": 2,
            "path": "rotation"
          }
        }
      ],
      "samplers": [
        {
          "input": 5,
          "interpolation": "LINEAR",
          "output": 6
        }
      ]
    }
  ],

  "buffers": [
    {
      "uri": "data:application/gltf-buffer;base64,",
      "byteLength": 168
    },
    {
      "uri": "data:application/gltf-buffer;base64,",
      "byteLength": 320
    },
    {
      "uri": "data:application/gltf-buffer;base64,",
      "byteLength": 128
    },
    {
      "uri": "data:application/gltf-buffer;base64,",
      "byteLength": 240
    }
  ],

  "bufferViews": [
    {
      "buffer": 0,
      "byteOffset": 0,
      "byteLength": 48,
      "target": 34963
    },
    {
      "buffer": 0,
      "byteOffset": 48,
      "byteLength": 120,
      "target": 34962
    },
    {
      "buffer": 1,
      "byteOffset": 0,
      "byteLength": 320,
      "byteStride": 16
    },
    {
      "buffer": 2,
      "byteOffset": 0,
      "byteLength": 128
    },
    {
      "buffer": 3,
      "byteOffset": 0,
      "byteLength": 240
    }
  ],

  "accessors": [
    {
      "bufferView": 0,
      "byteOffset": 0,
      "componentType": 5123,
      "count": 24,
      "type": "SCALAR",
      "max": [9],
      "min": [0]
    },
    {
      "bufferView": 1,
      "byteOffset": 0,
      "componentType": 5126,
      "count": 10,
      "type": "VEC3",
      "max": [1.0, 2.0, 0.0],
      "min": [0.0, 0.0, 0.0]
    },
    {
      "bufferView": 2,
      "byteOffset": 0,
      "componentType": 5123,
      "count": 10,
      "type": "VEC4",
      "max": [0, 1, 0, 0],
      "min": [0, 1, 0, 0]
    },
    {
      "bufferView": 2,
      "byteOffset": 160,
      "componentType": 5126,
      "count": 10,
      "type": "VEC4",
      "max": [1.0, 1.0, 0.0, 0.0],
      "min": [0.0, 0.0, 0.0, 0.0]
    },
    {
      "bufferView": 3,
      "byteOffset": 0,
      "componentType": 5126,
      "count": 2,
      "type": "MAT4",
      "max": [
        1.0, 0.0, 0.0, 0.0, 0.0, 1.0, 0.0, 0.0, 0.0, 0.0, 1.0, 0.0, -0.5, -1.0,
        0.0, 1.0
      ],
      "min": [
        1.0, 0.0, 0.0, 0.0, 0.0, 1.0, 0.0, 0.0, 0.0, 0.0, 1.0, 0.0, -0.5, -1.0,
        0.0, 1.0
      ]
    },
    {
      "bufferView": 4,
      "byteOffset": 0,
      "componentType": 5126,
      "count": 12,
      "type": "SCALAR",
      "max": [5.5],
      "min": [0.0]
    },
    {
      "bufferView": 4,
      "byteOffset": 48,
      "componentType": 5126,
      "count": 12,
      "type": "VEC4",
      "max": [0.0, 0.0, 0.707, 1.0],
      "min": [0.0, 0.0, -0.707, 0.707]
    }
  ],

  "asset": {
    "version": "2.0"
  }
}
