{
  "asset": {
    "generator": "Khronos glTF Blender I/O v1.6.16",
    "version": "2.0"
  },
  "scene": 0,
  "scenes": [
    {
      "name": "Scene",
      "nodes": [
        0,
        1
      ]
    }
  ],
  "nodes": [
    {
      "mesh": 0,
      "name": "Asteroid"
    },
    {
      "mesh": 1,
      "name": "Refinery",
      "rotation": [
        -0.09325116872787476,
        0.6883626580238342,
        0.006518156733363867,
        0.719318151473999
      ],
      "scale": [
        0.10000002384185791,
        0.10000002384185791,
        0.10000002384185791
      ],
      "translation": [
        -0.06670808792114258,
        2.140815496444702,
        -0.46151405572891235
      ]
    }
  ],
  "materials": [
    {
      "doubleSided": true,
      "name": "Asteroid_01",
      "normalTexture": {
        "index": 0
      },
      "occlusionTexture": {
        "index": 1
      },
      "pbrMetallicRoughness": {
        "baseColorTexture": {
          "index": 2
        },
        "metallicFactor": 0.12366615980863571,
        "roughnessFactor": 0.8275533318519592
      }
    },
    {
      "doubleSided": true,
      "name": "Structure",
      "normalTexture": {
        "index": 3
      },
      "pbrMetallicRoughness": {
        "baseColorTexture": {
          "index": 4
        },
        "roughnessFactor": 0.858578622341156
      }
    }
  ],
  "meshes": [
    {
      "name": "Asteroid",
      "primitives": [
        {
          "attributes": {
            "POSITION": 0,
            "NORMAL": 1,
            "TEXCOORD_0": 2,
            "COLOR_0": 3
          },
          "indices": 4,
          "material": 0
        }
      ]
    },
    {
      "name": "Refinery",
      "primitives": [
        {
          "attributes": {
            "POSITION": 5,
            "NORMAL": 6,
            "TEXCOORD_0": 7
          },
          "indices": 8,
          "material": 1
        }
      ]
    }
  ],
  "textures": [
    {
      "sampler": 0,
      "source": 0
    },
    {
      "sampler": 0,
      "source": 1
    },
    {
      "sampler": 0,
      "source": 2
    },
    {
      "sampler": 0,
      "source": 3
    },
    {
      "sampler": 0,
      "source": 4
    }
  ],
  "images": [
    {
      "name": "Asteroid_01_normal",
      "uri": "asteroid_img0.png"
    },
    {
      "name": "Asteroid_01_metallicRoughness",
      "uri": "asteroid_img1.png"
    },
    {
      "name": "Asteroid_01_baseColor",
      "uri": "asteroid_img2.png"
    },
    {
      "name": "Structure_v1_NM",
      "uri": "asteroid_img3.png"
    },
    {
      "name": "Structure_v1_blue",
      "uri": "asteroid_img4.png"
    }
  ],
  "accessors": [
    {
      "bufferView": 0,
      "componentType": 5126,
      "count": 618,
      "max": [
        3.2066287994384766,
        1.9481924772262573,
        2.020200729370117
      ],
      "min": [
        -2.990743398666382,
        -1.928831696510315,
        -1.976090431213379
      ],
      "type": "VEC3"
    },
    {
      "bufferView": 1,
      "componentType": 5126,
      "count": 618,
      "type": "VEC3"
    },
    {
      "bufferView": 2,
      "componentType": 5126,
      "count": 618,
      "type": "VEC2"
    },
    {
      "bufferView": 3,
      "componentType": 5123,
      "count": 618,
      "normalized": true,
      "type": "VEC4"
    },
    {
      "bufferView": 4,
      "componentType": 5123,
      "count": 1800,
      "type": "SCALAR"
    },
    {
      "bufferView": 5,
      "componentType": 5126,
      "count": 12514,
      "max": [
        2.680603265762329,
        2.8176109790802,
        4.457511901855469
      ],
      "min": [
        -2.680603265762329,
        -2.8176109790802,
        -4.457512378692627
      ],
      "type": "VEC3"
    },
    {
      "bufferView": 6,
      "componentType": 5126,
      "count": 12514,
      "type": "VEC3"
    },
    {
      "bufferView": 7,
      "componentType": 5126,
      "count": 12514,
      "type": "VEC2"
    },
    {
      "bufferView": 8,
      "componentType": 5123,
      "count": 23928,
      "type": "SCALAR"
    }
  ],
  "bufferViews": [
    {
      "buffer": 0,
      "byteLength": 7416,
      "byteOffset": 0
    },
    {
      "buffer": 0,
      "byteLength": 7416,
      "byteOffset": 7416
    },
    {
      "buffer": 0,
      "byteLength": 4944,
      "byteOffset": 14832
    },
    {
      "buffer": 0,
      "byteLength": 4944,
      "byteOffset": 19776
    },
    {
      "buffer": 0,
      "byteLength": 3600,
      "byteOffset": 24720
    },
    {
      "buffer": 0,
      "byteLength": 150168,
      "byteOffset": 28320
    },
    {
      "buffer": 0,
      "byteLength": 150168,
      "byteOffset": 178488
    },
    {
      "buffer": 0,
      "byteLength": 100112,
      "byteOffset": 328656
    },
    {
      "buffer": 0,
      "byteLength": 47856,
      "byteOffset": 428768
    }
  ],
  "samplers": [
    {
      "magFilter": 9729,
      "minFilter": 9987
    }
  ],
  "buffers": [
    {
      "uri": "asteroid_data.bin",
      "byteLength": 476624
    }
  ]
}