{
  "asset": {
    "generator": "Khronos glTF Blender I/O v1.6.16",
    "version": "2.0"
  },
  "scene": 0,
  "scenes": [
    {
      "name": "Scene",
      "nodes": [0, 1]
    }
  ],
  "nodes": [
    {
      "mesh": 0,
      "name": "Asteroid"
    },
    {
      "mesh": 1,
      "name": "Refinery",
      "rotation": [
        -0.09325116872787476, 
        0.6883626580238342, 
        0.006518156733363867,
        0.719318151473999
      ],
      "scale": [0.10000002384185791, 0.10000002384185791, 0.10000002384185791],
      "translation": [
        -0.06670808792114258, 2.140815496444702, -0.46151405572891235
      ]
    }
  ],
  "materials": [
    {
      "doubleSided": true,
      "name": "Asteroid_01",
      "normalTexture": {
        "index": 0
      },
      "occlusionTexture": {
        "index": 1
      },
      "pbrMetallicRoughness": {
        "baseColorTexture": {
          "index": 2
        },
        "metallicFactor": 0.12366615980863571,
        "roughnessFactor": 0.8275533318519592
      }
    },
    {
      "doubleSided": true,
      "name": "Structure",
      "normalTexture": {
        "index": 3
      },
      "pbrMetallicRoughness": {
        "baseColorTexture": {
          "index": 4
        },
        "roughnessFactor": 0.858578622341156
      }
    }
  ],
  "meshes": [
    {
      "name": "Asteroid",
      "primitives": [
        {
          "attributes": {
            "POSITION": 0,
            "NORMAL": 1,
            "TANGENT": 2,
            "TEXCOORD_0": 3,
            "COLOR_0": 4
          },
          "indices": 5,
          "material": 0
        }
      ]
    },
    {
      "name": "Refinery",
      "primitives": [
        {
          "attributes": {
            "POSITION": 6,
            "NORMAL": 7,
            "TANGENT": 8,
            "TEXCOORD_0": 9
          },
          "indices": 10,
          "material": 1
        }
      ]
    }
  ],
  "textures": [
    {
      "sampler": 0,
      "source": 0
    },
    {
      "sampler": 0,
      "source": 1
    },
    {
      "sampler": 0,
      "source": 2
    },
    {
      "sampler": 0,
      "source": 3
    },
    {
      "sampler": 0,
      "source": 4
    }
  ],
  "images": [
    {
      "name": "Asteroid Normal",
      "uri": "asteroid_normal.png"
    },
    {
      "name": "Asteroid AO",
      "uri": "asteroid_ao.png"
    },
    {
      "name": "Asteroid Base Color",
      "uri": "asteroid_base_color.png"
    },
    {
      "name": "Structure Normal",
      "uri": "structure_normal.png"
    },
    {
      "name": "Structure Base Color",
      "uri": "structure_base_color.png"
    }
  ],
  "accessors": [
    {
      "bufferView": 0,
      "componentType": 5126,
      "count": 618,
      "max": [3.2066287994384766, 1.9481924772262573, 2.020200729370117],
      "min": [-2.990743398666382, -1.928831696510315, -1.976090431213379],
      "type": "VEC3"
    },
    {
      "bufferView": 1,
      "componentType": 5126,
      "count": 618,
      "type": "VEC3"
    },
    {
      "bufferView": 2,
      "componentType": 5126,
      "count": 618,
      "type": "VEC4"
    },
    {
      "bufferView": 3,
      "componentType": 5126,
      "count": 618,
      "type": "VEC2"
    },
    {
      "bufferView": 4,
      "componentType": 5123,
      "count": 618,
      "normalized": true,
      "type": "VEC4"
    },
    {
      "bufferView": 5,
      "componentType": 5123,
      "count": 1800,
      "type": "SCALAR"
    },
    {
      "bufferView": 6,
      "componentType": 5126,
      "count": 12525,
      "max": [2.680603265762329, 2.8176109790802, 4.457511901855469],
      "min": [-2.680603265762329, -2.8176109790802, -4.457512378692627],
      "type": "VEC3"
    },
    {
      "bufferView": 7,
      "componentType": 5126,
      "count": 12525,
      "type": "VEC3"
    },
    {
      "bufferView": 8,
      "componentType": 5126,
      "count": 12525,
      "type": "VEC4"
    },
    {
      "bufferView": 9,
      "componentType": 5126,
      "count": 12525,
      "type": "VEC2"
    },
    {
      "bufferView": 10,
      "componentType": 5123,
      "count": 23928,
      "type": "SCALAR"
    }
  ],
  "bufferViews": [
    {
      "buffer": 0,
      "byteLength": 7416,
      "byteOffset": 0
    },
    {
      "buffer": 0,
      "byteLength": 7416,
      "byteOffset": 7416
    },
    {
      "buffer": 0,
      "byteLength": 9888,
      "byteOffset": 14832
    },
    {
      "buffer": 0,
      "byteLength": 4944,
      "byteOffset": 24720
    },
    {
      "buffer": 0,
      "byteLength": 4944,
      "byteOffset": 29664
    },
    {
      "buffer": 0,
      "byteLength": 3600,
      "byteOffset": 34608
    },
    {
      "buffer": 0,
      "byteLength": 150300,
      "byteOffset": 38208
    },
    {
      "buffer": 0,
      "byteLength": 150300,
      "byteOffset": 188508
    },
    {
      "buffer": 0,
      "byteLength": 200400,
      "byteOffset": 338808
    },
    {
      "buffer": 0,
      "byteLength": 100200,
      "byteOffset": 539208
    },
    {
      "buffer": 0,
      "byteLength": 47856,
      "byteOffset": 639408
    }
  ],
  "samplers": [
    {
      "magFilter": 9729,
      "minFilter": 9987
    }
  ],
  "buffers": [
    {
      "byteLength": 687264,
      "uri": "asteroid.bin"
    }
  ]
}
